<!--?xml version="1.0" encoding="utf-8"?-->
<!-- Generator: Adobe Illustrator 18.1.1, SVG Export Plug-In . SVG Version: 6.00 Build 0)  -->

<svg version="1.1" id="_x32_" xmlns="http://www.w3.org/2000/svg" xmlns:xlink="http://www.w3.org/1999/xlink" x="0px" y="0px" viewBox="0 0 512 512" style="width: 256px; height: 256px; opacity: 1;" xml:space="preserve">
<style type="text/css">
	.st0{fill:#4B4B4B;}
</style>
<g>
	<path class="st0" d="M491.69,62.026c-12.846-12.88-30.701-20.277-49.004-20.277l-404.843,0.27
		c-13.428,0-25.969,7.211-32.717,18.808c-6.756,11.598-6.84,26.063-0.211,37.735l49.603,87.457v186.072
		c0,54.124,44.036,98.159,98.168,98.159h146.666c54.123,0,98.16-44.036,98.16-98.159V85.186l45.217-0.438
		c7.144,0.034,13.428,2.656,18.657,7.776c4.95,5.06,7.582,11.471,7.616,18.53v159.318c0,11.851,9.649,21.5,21.5,21.5
		c11.85,0,21.499-9.649,21.499-21.5V111.046C512.017,92.777,504.612,74.905,491.69,62.026z M370.876,372.092
		c0,39.439-32.084,71.523-71.524,71.523H152.686c-39.448,0-71.532-32.084-71.532-71.523V178.986L27.469,84.351
		c-1.831-3.247-1.805-7.253,0.068-10.476c1.88-3.221,5.356-5.221,9.083-5.221h334.256V372.092z" style="fill: rgb(192, 192, 192);"></path>
	<path class="st0" d="M239.257,207.671h71.971c4.774,0,8.637-3.871,8.637-8.637c0-4.765-3.863-8.637-8.637-8.637h-71.971
		c-4.774,0-8.637,3.872-8.637,8.637C230.62,203.799,234.483,207.671,239.257,207.671z" style="fill: rgb(192, 192, 192);"></path>
	<path class="st0" d="M239.257,283.968h71.971c4.774,0,8.637-3.88,8.637-8.637c0-4.774-3.863-8.637-8.637-8.637h-71.971
		c-4.774,0-8.637,3.863-8.637,8.637C230.62,280.089,234.483,283.968,239.257,283.968z" style="fill: rgb(192, 192, 192);"></path>
	<path class="st0" d="M239.257,360.257h71.971c4.774,0,8.637-3.871,8.637-8.637c0-4.765-3.863-8.637-8.637-8.637h-71.971
		c-4.774,0-8.637,3.872-8.637,8.637C230.62,356.387,234.483,360.257,239.257,360.257z" style="fill: rgb(192, 192, 192);"></path>
</g>
</svg>
